#!OML:ASF F:\VICON\USERDATA\INSTALL\rory3\rory3.ASF
:FULLY-SPECIFIED
:DEGREES
1
root 0.8670630000000001 17.9002 -8.415340000000006 -1.8926399999999997 -3.272890000000003 -3.8193599999999996
lfemur -23.305500000000023 -3.004779999999999 -17.937699999999996
ltibia 26.7446
lfoot -1.79049999999999 -4.190290000000005
ltoes -2.7046399999999995
rfemur 5.21546999999998 3.5874000000000006 27.9409
rtibia 47.22150000000002
rfoot 4.259550000000022 1.4594700000000094
rtoes -1.671289999999991
lowerback 1.0 2.4818500000000028 3.2383700000000037
upperback -0.4758100000000006 3.7126099999999993 0.4039599999999992
thorax -5.89783 1.7314299999999985 -1.9423500000000018
lowerneck -16.4075 -3.5109600000000007 -1.35348
upperneck 23.2017 -4.68834 0.49946299999999955
head 10.1535 -2.21977 -0.22926899999999992
lclavicle 1.616990000000003e-14 8.150169999999984e-15
lhumerus -38.385999999999996 13.566499999999998 76.4631
lradius 17.301999999999982
lwrist -1.7619100000000087
lhand -25.5163 21.577100000000005
lfingers 7.12502
lthumb 1.012899999999998 51.554399999999994
rclavicle 1.616990000000003e-14 8.150169999999984e-15
rhumerus -24.931400000000004 -18.026900000000012 -80.8418
rradius 30.277199999999993
rwrist 1.1548799999999995
rhand -19.114700000000003 1.0
rfingers 7.12502
rthumb 7.194389999999999 -6.972610000000001
2
root 0.9333179999999994 17.9535 -7.686949999999994 -2.61137 -4.461759999999996 -1.9682700000000002
lfemur -20.175199999999997 -2.56682 -20.483
ltibia 27.205300000000005
lfoot -3.38671 -3.119879999999999
ltoes -0.3290249999999961
rfemur -0.9784560000000262 4.11545 24.9708
rtibia 58.02759999999995
rfoot 16.08599999999998 2.3664099999999806
rtoes 14.73850000000001
lowerback 1.0 2.7473499999999995 1.4242600000000012
upperback -0.05280930000000064 3.8268400000000025 -0.030414300000003447
thorax -5.83109 1.839030000000003 -1.4151200000000028
lowerneck -16.8213 -3.26988 -1.1951600000000013
upperneck 22.6056 -4.376070000000001 0.4920279999999998
head 10.0105 -2.0650300000000006 -0.21700499999999998
lclavicle 1.143010000000004e-15 -5.76476e-15
lhumerus -37.54119999999999 12.050700000000017 77.5113
lradius 18.40510000000001
lwrist -0.48406500000000285
lhand -25.212999999999997 21.218399999999995
lfingers 7.12502
lthumb 1.3058199999999984 51.1941
rclavicle 1.143010000000004e-15 -5.76476e-15
rhumerus -25.6784 -18.545999999999992 -81.0206
rradius 29.554500000000008
rwrist 1.3609499999999946
rhand -18.6817 1.0
rfingers 7.12502
rthumb 7.6124 -7.66477
3
root 0.9891189999999992 18.0245 -6.981330000000019 -3.2297000000000007 -4.694330000000003 -0.6042150000000015
lfemur -16.854399999999984 -2.06632 -22.6384
ltibia 27.472600000000003
lfoot -5.9633600000000015 -2.27253
ltoes -1.250700000000006
rfemur -6.873749999999982 3.2952600000000007 22.719700000000003
rtibia 66.93369999999996
rfoot 16.136500000000034 -0.09920360000000183
rtoes 12.076500000000005
lowerback 1.0 2.5737799999999993 0.14389500000000055
upperback 0.26957700000000007 3.4241899999999963 -0.25200899999999926
thorax -5.713309999999999 1.6756499999999983 -0.8735170000000008
lowerneck -16.439 -3.01081 -1.1988300000000003
upperneck 22.0579 -3.965829999999999 0.3245150000000005
head 9.73632 -1.9018799999999998 -0.20739700000000016
lclavicle -1.3914900000000015e-14 -1.3914899999999978e-14
lhumerus -36.23089999999999 9.428479999999997 79.0122
lradius 18.92990000000001
lwrist 1.4990899999999978
lhand -26.216100000000004 19.789099999999994
lfingers 7.12502
lthumb 0.337075 49.76859999999999
rclavicle -1.3914900000000015e-14 -1.3914899999999978e-14
rhumerus -25.598499999999994 -19.652900000000002 -80.6325
rradius 26.380100000000002
rwrist 3.7000400000000035
rhand -18.2703 1.0
rfingers 7.12502
rthumb 8.00942 -3.6813399999999947
4
root 1.009650000000001 18.0669 -6.304260000000012 -3.8927400000000008 -4.406989999999998 -0.17953599999999748
lfemur -13.681100000000004 -2.42349 -23.49359999999999
ltibia 27.491500000000002
lfoot -7.82573 -1.459140000000001
ltoes 1.2818600000000049
rfemur -12.120200000000002 1.6796300000000026 21.881899999999998
rtibia 72.92099999999996
rfoot 8.702209999999976 -2.7126300000000056
rtoes 9.028200000000009
lowerback 1.0 2.2125099999999995 -0.5022670000000036
upperback 0.6202590000000007 2.8659999999999983 -0.1778449999999976
thorax -5.53956 1.4194400000000018 -0.35023699999999813
lowerneck -16.133 -2.97474 -1.2230899999999996
upperneck 22.1828 -3.88332 0.19210799999999983
head 9.7201 -1.8827 -0.23465300000000008
lclavicle -2.1692399999999972e-14 4.969619999999999e-15
lhumerus -34.7105 7.819870000000003 79.6931
lradius 19.752399999999998
lwrist 1.1256000000000022
lhand -26.5878 20.8791
lfingers 7.12502
lthumb -0.021936399999998857 50.85889999999999
rclavicle -2.1692399999999972e-14 4.969619999999999e-15
rhumerus -26.009299999999996 -20.6635 -80.4374
rradius 25.794800000000002
rwrist 6.28073
rhand -17.1547 1.0
rfingers 7.12502
rthumb 9.0861 -8.10983
5
root 1.014800000000001 18.0676 -5.652500000000016 -4.259739999999999 -3.6958999999999955 0.27656099999999917
lfemur -10.8764 -2.2110899999999996 -24.352999999999994
ltibia 27.4921
lfoot -10.198200000000003 -1.3803799999999986
ltoes 0.40397000000000416
rfemur -17.331300000000002 0.11303000000000285 21.1785
rtibia 75.91399999999994
rfoot 4.422759999999993 -4.446600000000003
rtoes 10.682899999999988
lowerback 1.0 1.7052900000000022 -1.2733100000000026
upperback 0.7361349999999997 2.103859999999999 -0.031452800000001835
thorax -5.49285 1.0649399999999984 0.3550949999999995
lowerneck -15.5285 -2.86188 -1.3305899999999997
upperneck 22.4345 -3.64251 -0.08048509999999975
head 9.69053 -1.81428 -0.27264500000000025
lclavicle -2.334169999999998e-14 1.615130000000004e-14
lhumerus -33.3313 6.304349999999996 80.2905
lradius 20.587
lwrist 2.135040000000002
lhand -26.3872 24.627300000000005
lfingers 7.12502
lthumb 0.17176400000000136 54.607
rclavicle -2.334169999999998e-14 1.615130000000004e-14
rhumerus -26.877399999999998 -21.6915 -79.9062
rradius 25.5127
rwrist 7.896050000000004
rhand -16.0521 1.0
rfingers 7.12502
rthumb 10.149900000000006 -10.443300000000002
6
root 1.0184500000000005 18.0754 -5.00407000000002 -4.509369999999999 -2.341370000000002 0.3781540000000021
lfemur -8.228329999999996 -2.49687 -24.892100000000006
ltibia 27.4147
lfoot -12.359299999999998 -1.221740000000001
ltoes 1.4541399999999984
rfemur -21.71759999999999 -1.4969700000000028 21.03840000000001
rtibia 75.4292999999999
rfoot -0.27197900000001596 -4.353049999999996
rtoes 7.476149999999996
lowerback 1.0 0.9963239999999991 -1.6311500000000043
upperback 0.8030659999999998 1.1268900000000008 0.16814400000000096
thorax -5.49602 0.5951500000000003 0.9178220000000001
lowerneck -15.6012 -2.92962 -1.4123499999999996
upperneck 23.2586 -3.68529 -0.2433469999999996
head 9.99621 -1.85828 -0.33172600000000024
lclavicle 5.081240000000009e-15 2.6338999999999938e-15
lhumerus -31.743800000000004 3.936470000000001 81.0469
lradius 21.8676
lwrist 4.394509999999998
lhand -26.8092 26.622200000000007
lfingers 7.12502
lthumb -0.23577000000000148 56.60179999999999
rclavicle 5.081240000000009e-15 2.6338999999999938e-15
rhumerus -28.3726 -23.6281 -78.5851
rradius 24.9572
rwrist 7.8621700000000025
rhand -15.209299999999997 1.0
rfingers 7.12502
rthumb 10.962799999999994 -10.617100000000006
7
root 1.0098800000000012 18.0199 -4.372449999999985 -4.610180000000003 -1.39268 0.9229259999999959
lfemur -6.1932199999999975 -2.313 -25.796399999999988
ltibia 28.298800000000007
lfoot -14.674000000000001 -0.8724179999999973
ltoes 0.27856300000000633
rfemur -25.801099999999998 -2.265540000000014 20.60079999999999
rtibia 72.34930000000006
rfoot -5.124220000000001 -3.9886500000000025
rtoes 2.814610000000001
lowerback 1.0 0.6251160000000007 -2.544569999999998
upperback 0.5892310000000002 0.508265 0.29569100000000326
thorax -6.022129999999999 0.32311299999999993 1.6618799999999991
lowerneck -15.3114 -2.94436 -1.5319799999999997
upperneck 23.5519 -3.68016 -0.2602399999999996
head 10.0486 -1.8696199999999998 -0.3154579999999999
lclavicle -9.373939999999987e-15 -1.4759799999999987e-14
lhumerus -30.6719 2.063379999999997 81.4033
lradius 23.8413
lwrist 3.7908900000000014
lhand -25.7902 28.730700000000013
lfingers 7.12502
lthumb 0.748392999999997 58.709100000000014
rclavicle -9.373939999999987e-15 -1.4759799999999987e-14
rhumerus -30.1454 -23.8413 -77.7173
rradius 24.7305
rwrist 5.054369999999999
rhand -16.7223 1.0
rfingers 7.12502
rthumb 9.503259999999996 -5.718939999999996
8
root 0.9902990000000008 17.9689 -3.7377200000000315 -4.462089999999998 -0.2527270000000015 1.0178300000000027
lfemur -4.194269999999989 -2.908 -26.14529999999999
ltibia 28.003999999999998
lfoot -15.8311 -0.5618640000000006
ltoes 1.0689400000000036
rfemur -28.880799999999994 -2.7985999999999853 20.6841
rtibia 66.43039999999999
rfoot -8.17878 -4.808570000000001
rtoes -2.536929999999993
lowerback 1.0 0.11123299999999975 -2.9644500000000034
upperback 0.7622810000000007 -0.2111500000000014 0.5267999999999979
thorax -5.759529999999999 -0.02141980000000049 2.261829999999999
lowerneck -15.577 -2.96243 -1.5519399999999997
upperneck 23.5439 -3.6528599999999996 -0.42794499999999897
head 10.0932 -1.87781 -0.3719170000000004
lclavicle 6.311410000000006e-15 1.4908900000000008e-15
lhumerus -28.5325 0.4549330000000058 81.5671
lradius 25.0907
lwrist 4.671810000000001
lhand -24.829700000000003 29.565900000000006
lfingers 7.12502
lthumb 1.6760000000000037 59.5391
rclavicle 6.311410000000006e-15 1.4908900000000008e-15
rhumerus -31.1374 -23.7274 -77.2019
rradius 24.963
rwrist 4.502180000000001
rhand -17.7618 1.0
rfingers 7.12502
rthumb 8.5002 -6.184509999999997
9
root 0.9660930000000003 17.9411 -3.097399999999981 -4.200700000000003 0.16144899999999884 1.3566500000000015
lfemur -1.4619 -2.9983299999999997 -26.714100000000016
ltibia 27.463999999999988
lfoot -17.86290000000001 0.7141040000000038
ltoes 0.1683400000000086
rfemur -30.67830000000002 -2.2064500000000056 20.438300000000005
rtibia 57.68560000000002
rfoot -8.79704 -6.997260000000001
rtoes -2.289999999999994
lowerback 1.0 -0.07177590000000039 -3.7006800000000046
upperback 0.7784049999999988 -0.5367210000000013 0.7230309999999998
thorax -5.68124 -0.16193699999999928 2.9375300000000024
lowerneck -15.7273 -2.91546 -1.80439
upperneck 23.623 -3.58241 -0.1770829999999998
head 10.1609 -1.83763 -0.23590299999999986
lclavicle -1.5008200000000025e-14 5.963539999999972e-16
lhumerus -26.105100000000004 -0.9908069999999984 81.727
lradius 25.5185
lwrist 5.710139999999997
lhand -26.040499999999998 29.272099999999995
lfingers 7.12502
lthumb 0.5066120000000014 59.25129999999999
rclavicle -1.5008200000000025e-14 5.963539999999972e-16
rhumerus -32.28 -24.4184 -76.1654
rradius 24.7835
rwrist 5.10384
rhand -17.9678 1.0
rfingers 7.12502
rthumb 8.30139 -5.948920000000001
